<svg width="100" height="100" viewBox="0 0 100 100" fill="none" xmlns="http://www.w3.org/2000/svg">
<rect width="100" height="100" rx="50" fill="white"/>
<path d="M61.3889 44.9277V39.7027C61.3889 38.6285 60.9587 37.5983 60.1929 36.8387C59.4271 36.0791 58.3885 35.6523 57.3056 35.6523V26.2015C59.5105 26.5795 64.1111 27.9701 64.1111 32.9521V38.3526C64.1111 39.4268 64.5413 40.457 65.3071 41.2166C66.0729 41.9762 67.1115 42.403 68.1944 42.403H69.5555C70.6385 42.403 71.6771 41.9762 72.4429 41.2166C73.2087 40.457 73.6389 39.4268 73.6389 38.3526V32.9521C73.6389 31.872 73.9383 17.0611 57.4689 15.4005H57.3056V14.0504C57.3056 12.9761 56.8753 11.9459 56.1096 11.1863C55.3438 10.4267 54.3052 10 53.2222 10H47.7778C46.6948 10 45.6562 10.4267 44.8904 11.1863C44.1247 11.9459 43.6945 12.9761 43.6945 14.0504V35.6523C42.6115 35.6523 41.5729 36.0791 40.8071 36.8387C40.0413 37.5983 39.6111 38.6285 39.6111 39.7027V44.9277C34.6613 47.3637 30.6869 51.3879 28.3334 56.3469C25.9799 61.3059 25.3855 66.9084 26.6467 72.2447C27.9079 77.581 30.9507 82.3377 35.2809 85.7425C39.6111 89.1472 44.9744 91 50.5 91C56.0256 91 61.3889 89.1472 65.7191 85.7425C70.0493 82.3377 73.0921 77.581 74.3533 72.2447C75.6145 66.9084 75.0201 61.3059 72.6666 56.3469C70.3131 51.3879 66.3387 47.3637 61.3889 44.9277ZM49.5608 52.2454C49.8159 51.9939 50.1608 51.8528 50.5204 51.8528C50.88 51.8528 51.225 51.9939 51.48 52.2454C51.7298 52.5023 51.8668 52.847 51.8611 53.2039C51.8611 53.562 51.7177 53.9054 51.4625 54.1586C51.2072 54.4118 50.861 54.5541 50.5 54.5541C50.3179 54.5507 50.1379 54.5141 49.9692 54.4461C49.8069 54.3803 49.659 54.284 49.5336 54.1625C49.4062 54.0342 49.3045 53.883 49.2342 53.717C49.1691 53.5538 49.1367 53.3795 49.1389 53.2039C49.1414 53.0244 49.18 52.8471 49.2525 52.6825C49.3249 52.5179 49.4298 52.3693 49.5608 52.2454ZM44.1164 52.2454C44.3078 52.058 44.5509 51.9311 44.8149 51.8807C45.0789 51.8302 45.3521 51.8584 45.6 51.9618C45.7622 52.0276 45.9101 52.1239 46.0356 52.2454C46.2854 52.5023 46.4224 52.847 46.4167 53.2039C46.4145 53.3804 46.3775 53.5547 46.3078 53.717C46.2418 53.8853 46.1396 54.0374 46.0083 54.1625C45.7548 54.412 45.4126 54.5526 45.0556 54.5541C44.8764 54.5551 44.6989 54.521 44.533 54.4539C44.3672 54.3867 44.2164 54.2877 44.0892 54.1625C43.9647 54.0318 43.8635 53.8812 43.7897 53.717C43.7246 53.5538 43.6923 53.3795 43.6945 53.2039C43.697 53.0244 43.7356 52.8471 43.808 52.6825C43.8805 52.5179 43.9853 52.3693 44.1164 52.2454ZM38.672 52.2454L38.8761 52.0833C38.9455 52.0297 39.0238 51.9885 39.1075 51.9618C39.1893 51.9226 39.2764 51.8953 39.3661 51.8808C39.6315 51.8294 39.9064 51.8576 40.1556 51.9618C40.3178 52.0276 40.4657 52.1239 40.5911 52.2454C40.8409 52.5023 40.978 52.847 40.9722 53.2039C40.9701 53.3804 40.9331 53.5547 40.8633 53.717C40.7894 53.8811 40.6881 54.0317 40.5639 54.1625C40.3104 54.412 39.9682 54.5526 39.6111 54.5541H39.3389C39.2493 54.5393 39.1622 54.512 39.0803 54.4731C38.9966 54.4464 38.9182 54.4052 38.8489 54.3516L38.6447 54.1895C38.5203 54.0588 38.419 53.9082 38.3453 53.744C38.2766 53.5723 38.2442 53.3885 38.25 53.2039C38.2525 53.0244 38.2911 52.8471 38.3636 52.6825C38.436 52.5179 38.5409 52.3693 38.672 52.2454ZM35.5278 64.275L35.4461 64.518L35.3236 64.761L35.1467 64.9635C35.0179 65.0903 34.8648 65.1902 34.6965 65.2575C34.5282 65.3247 34.3481 65.3579 34.1667 65.3551C33.9875 65.3561 33.81 65.322 33.6441 65.2548C33.4783 65.1877 33.3275 65.0887 33.2003 64.9635C33.0727 64.838 32.9715 64.6887 32.9024 64.5242C32.8333 64.3596 32.7977 64.1832 32.7977 64.0049C32.7977 63.8267 32.8333 63.6502 32.9024 63.4857C32.9715 63.3212 33.0727 63.1719 33.2003 63.0464C33.3917 62.859 33.6348 62.7321 33.8988 62.6816C34.1628 62.6312 34.436 62.6594 34.6839 62.7628C34.8461 62.8286 34.994 62.9249 35.1195 63.0464L35.2964 63.2489L35.4189 63.4919L35.5006 63.7349C35.5372 63.9131 35.5372 64.0968 35.5006 64.275H35.5278ZM36.8889 59.9546C36.7098 59.9556 36.5322 59.9215 36.3664 59.8543C36.2005 59.7872 36.0497 59.6882 35.9225 59.563C35.7951 59.4347 35.6934 59.2835 35.6231 59.1175C35.4965 58.787 35.4965 58.4219 35.6231 58.0914C35.6919 57.9245 35.7937 57.773 35.9225 57.6459C36.1775 57.3944 36.5225 57.2533 36.8821 57.2533C37.2417 57.2533 37.5867 57.3944 37.8417 57.6459C37.9659 57.7767 38.0671 57.9273 38.1411 58.0914C38.2109 58.2537 38.2479 58.428 38.25 58.6044C38.25 58.9625 38.1066 59.3059 37.8514 59.5591C37.5961 59.8123 37.2499 59.9546 36.8889 59.9546ZM40.9722 64.275L40.8906 64.518L40.7681 64.761L40.5911 64.9635C40.4623 65.0903 40.3093 65.1902 40.141 65.2575C39.9727 65.3247 39.7925 65.3579 39.6111 65.3551C39.4283 65.3584 39.247 65.3215 39.0803 65.2471C38.9181 65.1812 38.7702 65.085 38.6447 64.9635C38.5821 64.903 38.5272 64.8349 38.4814 64.761C38.4308 64.683 38.3853 64.6018 38.3453 64.518C38.3391 64.4371 38.3391 64.3559 38.3453 64.275C38.3086 64.0968 38.3086 63.9131 38.3453 63.7349C38.3391 63.654 38.3391 63.5728 38.3453 63.4919C38.3854 63.4081 38.4309 63.3269 38.4814 63.2489C38.527 63.1748 38.5819 63.1067 38.6447 63.0464C38.7702 62.9249 38.9181 62.8286 39.0803 62.7628C39.2463 62.6941 39.4244 62.6588 39.6043 62.6588C39.7842 62.6588 39.9623 62.6941 40.1283 62.7628C40.2906 62.8286 40.4385 62.9249 40.5639 63.0464L40.7408 63.2489L40.8633 63.4919L40.945 63.7349C40.9817 63.9131 40.9817 64.0968 40.945 64.275H40.9722ZM43.6128 59.1175C43.5421 59.2834 43.4405 59.4345 43.3133 59.563C43.1845 59.6898 43.0315 59.7897 42.8632 59.857C42.6949 59.9242 42.5148 59.9574 42.3333 59.9546C42.1542 59.9556 41.9766 59.9215 41.8108 59.8543C41.645 59.7872 41.4941 59.6882 41.367 59.563C41.2408 59.4369 41.141 59.2873 41.0733 59.1228C41.0055 58.9583 40.9712 58.7821 40.9722 58.6044C40.9701 58.4289 41.0024 58.2546 41.0675 58.0914C41.1413 57.9272 41.2425 57.7765 41.367 57.6459C41.622 57.3944 41.967 57.2533 42.3265 57.2533C42.6861 57.2533 43.0311 57.3944 43.2861 57.6459C43.4136 57.7742 43.5152 57.9254 43.5856 58.0914C43.7121 58.4219 43.7121 58.787 43.5856 59.1175H43.6128ZM46.4167 64.275L46.335 64.518L46.2125 64.761L46.0356 64.9635C45.9068 65.0903 45.7537 65.1902 45.5854 65.2575C45.4171 65.3247 45.237 65.3579 45.0556 65.3551C44.8764 65.3561 44.6989 65.322 44.533 65.2548C44.3672 65.1877 44.2164 65.0887 44.0892 64.9635L43.9122 64.761L43.7897 64.518C43.7835 64.4371 43.7835 64.3559 43.7897 64.275C43.7531 64.0968 43.7531 63.9131 43.7897 63.7349C43.7835 63.654 43.7835 63.5728 43.7897 63.4919L43.9122 63.2489L44.0892 63.0464C44.2146 62.9249 44.3625 62.8286 44.5247 62.7628C44.6908 62.6941 44.8689 62.6588 45.0488 62.6588C45.2286 62.6588 45.4068 62.6941 45.5728 62.7628C45.735 62.8286 45.8829 62.9249 46.0083 63.0464L46.1853 63.2489L46.3078 63.4919L46.3894 63.7349C46.4261 63.9131 46.4261 64.0968 46.3894 64.275H46.4167ZM47.7778 59.9546C47.5948 59.9593 47.4133 59.9223 47.2469 59.8466C47.0847 59.7807 46.9368 59.6845 46.8114 59.563C46.6852 59.4369 46.5854 59.2873 46.5177 59.1228C46.45 58.9583 46.4156 58.7821 46.4167 58.6044C46.4145 58.4289 46.4469 58.2546 46.5119 58.0914C46.5857 57.9272 46.687 57.7765 46.8114 57.6459C46.9368 57.5244 47.0847 57.4281 47.2469 57.3623C47.4538 57.2754 47.6791 57.2407 47.9029 57.2611C48.1266 57.2816 48.3417 57.3567 48.529 57.4797C48.7164 57.6027 48.8701 57.7698 48.9765 57.966C49.0829 58.1623 49.1387 58.3816 49.1389 58.6044C49.1389 58.9625 48.9955 59.3059 48.7402 59.5591C48.485 59.8123 48.1388 59.9546 47.7778 59.9546ZM50.5 85.6069C50.139 85.6069 49.7928 85.4647 49.5375 85.2115C49.2823 84.9583 49.1389 84.6149 49.1389 84.2568C49.1389 83.8987 49.2823 83.5553 49.5375 83.3021C49.7928 83.0489 50.139 82.9067 50.5 82.9067C54.2652 82.9394 57.9262 81.6807 60.8634 79.3437C63.8006 77.0066 65.8335 73.7347 66.618 70.0817C67.4026 66.4287 66.8907 62.619 65.1689 59.2973C63.4471 55.9757 60.6212 53.3462 57.1694 51.8538C57.0059 51.7811 56.8584 51.6772 56.7353 51.548C56.6123 51.4187 56.5161 51.2667 56.4522 51.1006C56.3884 50.9345 56.3582 50.7575 56.3633 50.5798C56.3684 50.4021 56.4088 50.2271 56.4821 50.0649C56.5554 49.9027 56.6601 49.7564 56.7904 49.6343C56.9207 49.5122 57.074 49.4168 57.2415 49.3535C57.4089 49.2902 57.5873 49.2602 57.7665 49.2653C57.9456 49.2704 58.122 49.3104 58.2855 49.3831C62.3102 51.126 65.6043 54.1943 67.611 58.0689C69.6176 61.9436 70.2135 66.3868 69.2978 70.647C68.3822 74.9073 66.0112 78.7231 62.5859 81.449C59.1606 84.175 54.8913 85.6437 50.5 85.6069Z" fill="black"/>
</svg>
