<svg width="100" height="100" viewBox="0 0 100 100" fill="none" xmlns="http://www.w3.org/2000/svg">
<rect width="100" height="100" rx="50" fill="white"/>
<g clip-path="url(#clip0)">
<path d="M61.5063 23.8712H59.3134C58.804 16.6679 52.8634 11.0685 45.5966 11.0685C38.3487 11.0685 32.4269 16.6367 31.8877 23.8712H29.6917V27.1226H31.8265L31.8234 35.7629L34.894 35.7644L34.8972 24.3564C35.1527 18.6181 39.8519 14.1217 45.5966 14.1217C51.3382 14.1217 56.039 18.6181 56.2961 24.2925L56.3196 35.8877L59.3871 35.883L59.3699 27.1242H61.5079L61.5063 23.8712Z" fill="black"/>
<path d="M30.9619 50.9465L39.9748 44.7808L36.6628 37.7163H34.1987C28.9964 37.7163 24.8112 40.8195 22.9209 45.2941L30.9619 50.9465Z" fill="black"/>
<path d="M29.744 52.43L22.3033 47.2003C22.018 48.3221 21.8158 49.4813 21.8158 50.7045V60.1357H29.744V52.43Z" fill="black"/>
<path d="M21.8154 62.0455V74.2741L12.6254 78.1106C11.6473 78.5178 11.1881 79.638 11.5987 80.61C11.906 81.3417 12.6176 81.7817 13.37 81.7817C13.6161 81.7817 13.8669 81.7349 14.1098 81.6319L21.8546 78.3977C22.2763 83.8801 29.7436 83.735 29.7436 77.9265V62.0455H21.8154Z" fill="black"/>
<path d="M65.9144 42.4203C66.1966 42.4203 66.4693 42.4531 66.7452 42.464C64.5351 39.5746 61.1603 37.7148 57.1555 37.7148H54.1428L50.8308 44.7793L53.334 46.4892C56.9533 43.9243 61.2701 42.4203 65.9144 42.4203Z" fill="black"/>
<path d="M53.7209 23.7185H37.3943V35.8207H53.7209V23.7185Z" fill="black"/>
<path d="M90.0001 58.1172H84.5469C81.3289 50.3741 74.197 44.9666 65.913 44.9666C55.4346 44.9666 46.7869 53.6099 45.6019 64.6996L66.9303 56.323C67.9194 55.933 69.0323 56.4182 69.4194 57.3964C69.8081 58.3793 69.3222 59.4886 68.341 59.874L45.5236 68.8356C46.2524 80.4355 55.1038 89.6327 65.9146 89.6327C77.1987 89.6327 86.3793 79.6148 86.3793 67.3004C86.3793 66.9962 86.3479 66.695 86.3385 66.3924H90.0001V58.1172Z" fill="black"/>
</g>
<defs>
<clipPath id="clip0">
<rect width="79" height="79" fill="white" transform="translate(11 11)"/>
</clipPath>
</defs>
</svg>
