<svg width="100" height="100" viewBox="0 0 100 100" fill="none" xmlns="http://www.w3.org/2000/svg">
<rect width="100" height="100" rx="50" fill="white"/>
<path d="M32.6203 61.3375C34.0393 53.121 41.3279 46.8789 50.0999 46.8789C58.872 46.8789 66.1606 53.121 67.5796 61.4012C74.7391 55.9872 79.0607 47.5796 79.0607 38.5987C79.0607 22.8025 66.0961 10 50.0999 10C34.1038 10 21.1392 22.8025 21.1392 38.5987C21.1392 47.5159 25.3963 55.9872 32.6203 61.3375ZM63.387 26.4968C67.3861 26.4968 70.6756 29.7452 70.6756 33.6942C70.6756 37.6433 67.3861 40.8917 63.387 40.8917C59.388 40.8917 56.0985 37.6433 56.0985 33.6942C56.0985 29.7452 59.3235 26.4968 63.387 26.4968ZM36.8128 26.4968C40.8119 26.4968 44.1014 29.7452 44.1014 33.6942C44.1014 37.6433 40.8119 40.8917 36.8128 40.8917C32.8138 40.8917 29.5243 37.6433 29.5243 33.6942C29.5243 29.7452 32.8138 26.4968 36.8128 26.4968Z" fill="black"/>
<path d="M28.0597 74.1913L22.9045 79.2792L33.7106 89.9562L38.8658 84.8684L28.0597 74.1913Z" fill="black"/>
<path d="M70.3531 75.9238L63.0645 83.185L61.323 84.9047L66.483 90.0003L77.2546 79.2996L72.0946 74.2041L70.3531 75.9238Z" fill="black"/>
<path d="M68.5472 75.9235L64.6126 72.0382L64.8061 71.656C65.9671 69.363 66.5477 66.9426 66.5477 64.3949C66.5477 55.414 59.1301 48.1528 50.1 48.1528C41.0055 48.1528 33.6524 55.4777 33.6524 64.3949C33.6524 66.9426 34.2329 69.363 35.3939 71.656L35.5874 72.0382L31.6529 75.9235L37.1354 81.3375L40.7475 77.7706L41.199 78.0254C43.8435 79.7452 46.9395 80.6369 50.1 80.6369C53.2606 80.6369 56.3566 79.7452 59.0011 78.0254L59.4526 77.7706L63.0646 81.3375L68.5472 75.9235ZM50.1 75.2229C46.23 75.2229 42.8115 73.1847 40.8765 70.1273L50.1 65.1592L59.3236 70.1273C57.3886 73.1847 53.9701 75.2229 50.1 75.2229ZM49.455 53.7579V64.0764L40.2315 69.0445C39.5865 67.6433 39.1994 66.1146 39.1994 64.4586C39.1994 58.7261 43.779 54.0764 49.455 53.7579ZM59.9686 69.0445L50.745 64.0764V53.7579C56.4211 54.0764 61.0006 58.7898 61.0006 64.4586C61.0006 66.1146 60.6136 67.6433 59.9686 69.0445Z" fill="black"/>
</svg>
