<svg width="32" height="32" viewBox="0 0 32 32" fill="none" xmlns="http://www.w3.org/2000/svg">
<rect width="32" height="32" rx="16" fill="white"/>
<path d="M18.6653 16.8029C18.6659 16.2389 18.5099 15.6873 18.2171 15.2181C17.9243 14.7488 17.5077 14.3829 17.0202 14.1666C16.5327 13.9503 15.9961 13.8934 15.4783 14.0031C14.9605 14.1127 14.4848 14.384 14.1113 14.7826C13.7378 15.1812 13.4834 15.6892 13.3802 16.2423C13.277 16.7954 13.3297 17.3689 13.5315 17.89C13.7334 18.4111 14.0754 18.8566 14.5143 19.17C14.9531 19.4834 15.4692 19.6507 15.997 19.6507C16.703 19.6465 17.379 19.3453 17.8784 18.8122C18.3779 18.2791 18.6607 17.5572 18.6653 16.8029V16.8029ZM15.997 17.4209C15.882 17.4209 15.7696 17.3844 15.674 17.3162C15.5784 17.2479 15.5039 17.1509 15.4599 17.0374C15.4159 16.9239 15.4044 16.799 15.4268 16.6785C15.4493 16.558 15.5046 16.4473 15.5859 16.3605C15.6672 16.2736 15.7708 16.2144 15.8836 16.1905C15.9964 16.1665 16.1133 16.1788 16.2195 16.2258C16.3257 16.2728 16.4165 16.3524 16.4804 16.4546C16.5443 16.5567 16.5784 16.6768 16.5784 16.7997C16.5784 16.8813 16.5634 16.962 16.5341 17.0374C16.5049 17.1128 16.4621 17.1813 16.4081 17.2389C16.3541 17.2966 16.29 17.3424 16.2195 17.3736C16.149 17.4048 16.0734 17.4209 15.997 17.4209V17.4209Z" fill="black"/>
<path d="M13.0872 12.8432C13.1482 12.9535 13.2356 13.0444 13.3404 13.1066C13.4452 13.1687 13.5636 13.1999 13.6835 13.1968C13.7985 13.1974 13.9116 13.1656 14.0114 13.1044C14.6202 12.7344 15.3086 12.5399 16.0089 12.5399C16.7093 12.5399 17.3977 12.7344 18.0065 13.1044C18.1063 13.1654 18.2194 13.1973 18.3344 13.1968C18.4542 13.1999 18.5727 13.1687 18.6775 13.1066C18.7823 13.0444 18.8697 12.9535 18.9307 12.8432L22.24 6.66973C22.3253 6.50556 22.3474 6.31239 22.3018 6.13107C22.2562 5.94974 22.1464 5.79449 21.9955 5.69815C20.1706 4.5853 18.1057 4 16.0045 4C13.9033 4 11.8383 4.5853 10.0134 5.69815C9.90666 5.76055 9.8178 5.85281 9.75635 5.96504C9.6949 6.07727 9.66319 6.20524 9.6646 6.33525C9.666 6.45787 9.6957 6.57823 9.75106 6.68566L13.0872 12.8432ZM15.997 6.22376C17.2542 6.22212 18.5003 6.47393 19.6701 6.96598L17.7232 10.5815C16.5959 10.2306 15.3982 10.2306 14.2708 10.5815L12.324 6.96598C13.4938 6.47408 14.7399 6.22227 15.997 6.22376V6.22376Z" fill="black"/>
<path d="M19.998 16.8028C19.9959 17.5526 19.8097 18.2887 19.4582 18.9377C19.1067 19.5866 18.602 20.1257 17.9945 20.5012C17.8419 20.5958 17.7306 20.7511 17.6848 20.9331C17.639 21.1151 17.6624 21.3092 17.7501 21.4728L21.0862 27.6463C21.1764 27.8083 21.3222 27.9262 21.4927 27.975C21.6631 28.0238 21.8446 27.9996 21.9985 27.9075C23.8201 26.7786 25.3328 25.1592 26.3859 23.2107C27.4389 21.2622 27.9955 19.0528 28 16.8028C28 16.7086 27.9825 16.6153 27.9486 16.5283C27.9147 16.4413 27.8649 16.3623 27.8023 16.296C27.7396 16.2296 27.6653 16.1772 27.5836 16.1417C27.5019 16.1063 27.4144 16.0884 27.3262 16.0893H20.6658C20.4887 16.0893 20.3189 16.1644 20.1936 16.2983C20.0684 16.4321 19.998 16.6136 19.998 16.8028V16.8028ZM25.8087 18.3191C25.4388 21.0036 24.124 23.4361 22.1327 25.1202L20.1709 21.5174C21.0209 20.6543 21.621 19.5487 21.9001 18.3319L25.8087 18.3191Z" fill="black"/>
<path d="M9.96869 27.8884C10.0731 27.9619 10.1955 28.0007 10.3205 27.9998C10.4402 28.0022 10.5584 27.9708 10.6631 27.9087C10.7678 27.8466 10.8553 27.7561 10.9168 27.6463L14.241 21.4727C14.3289 21.3095 14.3528 21.1158 14.3076 20.9338C14.2623 20.7518 14.1516 20.5963 13.9995 20.5012L14.0412 20.5267L13.9965 20.498C13.3891 20.1225 12.8844 19.5834 12.5329 18.9345C12.1813 18.2855 11.9952 17.5494 11.993 16.7996C11.993 16.7059 11.9758 16.6131 11.9422 16.5265C11.9086 16.44 11.8595 16.3613 11.7974 16.2951C11.7354 16.2288 11.6618 16.1762 11.5808 16.1404C11.4998 16.1045 11.4129 16.0861 11.3252 16.0861H4.66783C4.49071 16.0861 4.32084 16.1612 4.1956 16.2951C4.07036 16.4289 4 16.6104 4 16.7996C4.00379 19.0435 4.55661 21.2473 5.60361 23.1924C6.65061 25.1376 8.1554 26.7564 9.96869 27.8884V27.8884ZM10.079 18.3318C10.3581 19.5487 10.9583 20.6543 11.8082 21.5173L9.86136 25.1201C7.87051 23.4357 6.55583 21.0034 6.18534 18.3191L10.079 18.3318Z" fill="black"/>
</svg>
