<svg width="256" height="256" viewBox="0 0 256 256" fill="none" xmlns="http://www.w3.org/2000/svg">
<path fill-rule="evenodd" clip-rule="evenodd" d="M24.7224 81.5122C16.4061 81.5122 9.66602 88.2533 9.66602 96.5686C9.66602 113.878 9.66602 142.122 9.66602 159.432C9.66602 167.747 16.4061 174.488 24.7224 174.488C44.6529 174.488 79.593 174.488 99.5245 174.488C107.842 174.488 114.581 167.747 114.581 159.432C114.581 151.824 114.581 144.184 114.581 144.184H93.8135V153.72H30.4334V102.28H93.8135V111.816H114.581C114.581 111.816 114.581 104.176 114.581 96.5686C114.581 88.2533 107.842 81.5122 99.5245 81.5122C79.593 81.5122 44.6529 81.5122 24.7224 81.5122Z" fill="#FFCC30"/>
<path fill-rule="evenodd" clip-rule="evenodd" d="M231.294 174.488C239.611 174.488 246.35 167.747 246.35 159.432C246.35 142.122 246.35 113.878 246.35 96.5686C246.35 88.2533 239.611 81.5122 231.294 81.5122C211.357 81.5122 176.416 81.5122 156.49 81.5122C148.173 81.5122 141.434 88.2533 141.434 96.5686C141.434 104.176 141.434 111.816 141.434 111.816H162.201V102.28H225.583V153.72H162.201V144.184H141.434V159.432C141.434 167.747 148.173 174.488 156.49 174.488C176.416 174.488 211.357 174.488 231.294 174.488Z" fill="#FFCC30"/>
<path fill-rule="evenodd" clip-rule="evenodd" d="M71.5591 127.919C71.5591 130.695 72.6618 133.356 74.6245 135.319C76.5872 137.281 79.2492 138.384 82.0243 138.384H174.072C179.805 138.384 184.455 133.735 184.455 128C184.455 127.999 184.455 127.999 184.455 127.998C184.455 125.245 183.362 122.604 181.411 120.657C179.469 118.711 176.826 117.616 174.072 117.616C152.559 117.616 103.305 117.616 81.86 117.616C79.1279 117.616 76.5078 118.702 74.5769 120.633C72.645 122.565 71.5591 125.185 71.5591 127.917C71.5591 127.918 71.5591 127.919 71.5591 127.919Z" fill="#FFCC30"/>
</svg>
