<svg width="154" height="154" viewBox="0 0 154 154" fill="none" xmlns="http://www.w3.org/2000/svg">
<circle cx="77" cy="77" r="74" fill="white" stroke="black" stroke-width="6"/>
<mask id="mask0" mask-type="alpha" maskUnits="userSpaceOnUse" x="0" y="0" width="154" height="154">
<circle cx="77" cy="77" r="73" fill="#C4C4C4" stroke="white" stroke-width="8"/>
</mask>
<g mask="url(#mask0)">
<path d="M49.7373 124.709L49.7373 170.032H112.053V124.709C112.053 116.37 108.77 108.373 102.927 102.477C97.0836 96.5806 89.1585 93.2681 80.895 93.2681C72.6314 93.2681 64.7064 96.5806 58.8632 102.477C53.02 108.373 49.7373 116.37 49.7373 124.709Z" fill="black"/>
<path d="M80.8923 93.2681C89.4963 93.2681 96.4711 86.2298 96.4711 77.5476C96.4711 68.8655 89.4963 61.8271 80.8923 61.8271C72.2884 61.8271 65.3135 68.8655 65.3135 77.5476C65.3135 86.2298 72.2884 93.2681 80.8923 93.2681Z" fill="black"/>
<path d="M98.3662 94.1052C103.703 97.1979 108.138 101.655 111.224 107.028C114.311 112.4 115.94 118.499 115.947 124.709V159.567H150.999V116.849C151.005 110.695 149.219 104.674 145.863 99.5358C142.507 94.397 137.73 90.3661 132.123 87.9435C126.517 85.521 120.329 84.8135 114.328 85.9089C108.327 87.0043 102.776 89.8544 98.3662 94.1052Z" fill="black"/>
<path d="M119.842 85.4082C128.445 85.4082 135.42 78.3699 135.42 69.6878C135.42 61.0056 128.445 53.9673 119.842 53.9673C111.238 53.9673 104.263 61.0056 104.263 69.6878C104.263 78.3699 111.238 85.4082 119.842 85.4082Z" fill="black"/>
<path d="M34.1589 85.4082C42.7629 85.4082 49.7377 78.3699 49.7377 69.6878C49.7377 61.0056 42.7629 53.9673 34.1589 53.9673C25.555 53.9673 18.5801 61.0056 18.5801 69.6878C18.5801 78.3699 25.555 85.4082 34.1589 85.4082Z" fill="black"/>
<path d="M3.00001 150.054H45.8418L45.8418 124.71C45.8441 119.493 46.9939 114.342 49.2085 109.628C51.423 104.914 54.6469 100.755 58.6476 97.4507C54.6503 92.3033 49.1611 88.5427 42.9451 86.6931C36.7291 84.8435 30.0961 84.9971 23.9707 87.1324C17.8453 89.2678 12.5328 93.2785 8.77366 98.6055C5.01456 103.932 2.99623 110.31 3.00001 116.85L3.00001 150.054Z" fill="black"/>
</g>
</svg>
