<svg width="32" height="32" viewBox="0 0 32 32" fill="none" xmlns="http://www.w3.org/2000/svg">
<rect width="32" height="32" rx="16" fill="white"/>
<path d="M6.90913 27C6.40729 27 6 26.6209 6 26.1539V17.6923C6 17.2252 6.40729 16.8462 6.90913 16.8462C7.41097 16.8462 7.81826 17.2252 7.81826 17.6923V26.1539C7.81826 26.6209 7.41097 27 6.90913 27Z" fill="black"/>
<path d="M19.637 25.3077H6.90913C6.40729 25.3077 6 24.9286 6 24.4615C6 23.9945 6.40729 23.6154 6.90913 23.6154H19.637C22.1771 23.6154 23.4753 22.5238 23.9972 21.9231C23.4772 21.324 22.1789 20.2308 19.637 20.2308H6.90913C6.40729 20.2308 6 19.8517 6 19.3846C6 18.9175 6.40729 18.5385 6.90913 18.5385H19.637C24.2372 18.5385 25.8391 21.4221 25.9045 21.544C26.0318 21.7826 26.0318 22.0635 25.9045 22.3005C25.8391 22.424 24.2372 25.3077 19.637 25.3077Z" fill="black"/>
<path d="M17.8187 25.3077C17.3169 25.3077 16.9096 24.9286 16.9096 24.4615V19.3846C16.9096 18.9175 17.3169 18.5385 17.8187 18.5385C18.3206 18.5385 18.7278 18.9175 18.7278 19.3846V24.4615C18.7278 24.9286 18.3206 25.3077 17.8187 25.3077Z" fill="black"/>
<path d="M6.90913 15.1538C6.40729 15.1538 6 14.7748 6 14.3077V5.84615C6 5.37908 6.40729 5 6.90913 5C7.41097 5 7.81826 5.37908 7.81826 5.84615V14.3077C7.81826 14.7748 7.41097 15.1538 6.90913 15.1538Z" fill="black"/>
<path d="M19.637 13.4616H6.90913C6.40729 13.4616 6 13.0825 6 12.6154C6 12.1483 6.40729 11.7692 6.90913 11.7692H19.637C22.1771 11.7692 23.4753 10.6777 23.9972 10.0769C23.4772 9.47786 22.1789 8.38463 19.637 8.38463H6.90913C6.40729 8.38463 6 8.00555 6 7.53848C6 7.0714 6.40729 6.69232 6.90913 6.69232H19.637C24.2372 6.69232 25.8391 9.57601 25.9045 9.69786C26.0318 9.93648 26.0318 10.2174 25.9045 10.4543C25.8391 10.5779 24.2372 13.4616 19.637 13.4616Z" fill="black"/>
<path d="M17.8187 13.4616C17.3169 13.4616 16.9096 13.0825 16.9096 12.6154V7.53848C16.9096 7.0714 17.3169 6.69232 17.8187 6.69232C18.3206 6.69232 18.7278 7.0714 18.7278 7.53848V12.6154C18.7278 13.0825 18.3206 13.4616 17.8187 13.4616Z" fill="black"/>
</svg>
