<svg width="32" height="32" viewBox="0 0 32 32" fill="none" xmlns="http://www.w3.org/2000/svg">
<rect width="32" height="32" rx="16" fill="white"/>
<path d="M20.1447 10.9844V8.5448H20.8553V6.72688H16.9075V5.81792H19.6301V4H15.0925V6.72688H11.1447V8.5448H11.8553V10.9844C10.0659 11.9143 8.63997 13.4189 7.80609 15.2571C6.9722 17.0954 6.77865 19.1608 7.25645 21.1223C7.73425 23.0839 8.85573 24.828 10.4411 26.075C12.0266 27.3221 13.9841 28 16 28C18.0159 28 19.9734 27.3221 21.5589 26.075C23.1443 24.828 24.2657 23.0839 24.7435 21.1223C25.2213 19.1608 25.0278 17.0954 24.1939 15.2571C23.36 13.4189 21.9341 11.9143 20.1447 10.9844ZM16 26.1786C14.3495 26.1787 12.7494 25.6096 11.4686 24.5669C10.1879 23.5243 9.30458 22.0718 8.96731 20.4536C8.63004 18.8355 8.85935 17.1503 9.61669 15.6816C10.374 14.2129 11.6132 13.0501 13.1258 12.3888L13.6704 12.1516V8.5448H18.3296V12.1516L18.8742 12.3888C20.3868 13.0501 21.626 14.2129 22.3833 15.6816C23.1406 17.1503 23.37 18.8355 23.0327 20.4536C22.6954 22.0718 21.8121 23.5243 20.5314 24.5669C19.2506 25.6096 17.6505 26.1787 16 26.1786V26.1786Z" fill="black"/>
</svg>
